<mxfile host="app.diagrams.net" modified="2024-06-04T17:03:56.124Z" agent="Mozilla/5.0 (Windows NT 10.0; Win64; x64) AppleWebKit/537.36 (KHTML, like Gecko) Chrome/125.0.0.0 Safari/537.36" etag="yqB5PtUbY6mtuQmqKvtr" version="24.4.13" type="device">
  <diagram name="Trang-1" id="NBDZ0pdaEKf1pP8h9tmf">
    <mxGraphModel dx="1827" dy="426" grid="1" gridSize="10" guides="1" tooltips="1" connect="1" arrows="1" fold="1" page="1" pageScale="1" pageWidth="827" pageHeight="1169" math="0" shadow="0">
      <root>
        <mxCell id="0" />
        <mxCell id="1" parent="0" />
        <mxCell id="zAwhETy06kgGIunD6YMz-1" value="BaseObject" style="swimlane;fontStyle=1;align=center;verticalAlign=top;childLayout=stackLayout;horizontal=1;startSize=26;horizontalStack=0;resizeParent=1;resizeParentMax=0;resizeLast=0;collapsible=1;marginBottom=0;whiteSpace=wrap;html=1;" vertex="1" parent="1">
          <mxGeometry x="350" y="450" width="260" height="260" as="geometry" />
        </mxCell>
        <mxCell id="zAwhETy06kgGIunD6YMz-2" value="&lt;div&gt;# tex: SDL_Texture*&lt;/div&gt;&lt;div&gt;# src: SDL_Rect&lt;/div&gt;&lt;div&gt;# dest: SDL_Rect&lt;/div&gt;" style="text;strokeColor=none;fillColor=none;align=left;verticalAlign=top;spacingLeft=4;spacingRight=4;overflow=hidden;rotatable=0;points=[[0,0.5],[1,0.5]];portConstraint=eastwest;whiteSpace=wrap;html=1;" vertex="1" parent="zAwhETy06kgGIunD6YMz-1">
          <mxGeometry y="26" width="260" height="54" as="geometry" />
        </mxCell>
        <mxCell id="zAwhETy06kgGIunD6YMz-3" value="" style="line;strokeWidth=1;fillColor=none;align=left;verticalAlign=middle;spacingTop=-1;spacingLeft=3;spacingRight=3;rotatable=0;labelPosition=right;points=[];portConstraint=eastwest;strokeColor=inherit;" vertex="1" parent="zAwhETy06kgGIunD6YMz-1">
          <mxGeometry y="80" width="260" height="8" as="geometry" />
        </mxCell>
        <mxCell id="zAwhETy06kgGIunD6YMz-4" value="+ CreateTexture(const char* file_name, SDL_Renderer* ren): void&lt;div&gt;+ SetDest(int xPos, int yPOs, int width, int height): void&lt;/div&gt;&lt;div&gt;+&amp;nbsp;SetSrc(int xPos, int yPos, int width, int height): void&lt;/div&gt;&lt;div&gt;+&amp;nbsp;GetSrc():&amp;nbsp;SDL_Rect&lt;/div&gt;&lt;div&gt;+ GetDest(): SDL_Rect&lt;/div&gt;&lt;div&gt;+ GetTexture(): SDL_Texture*&lt;/div&gt;&lt;div&gt;+ virtual Draw(SDL_Renderer* ren): void&lt;/div&gt;&lt;div&gt;&lt;br&gt;&lt;/div&gt;&lt;div&gt;&lt;br&gt;&lt;/div&gt;" style="text;strokeColor=none;fillColor=none;align=left;verticalAlign=top;spacingLeft=4;spacingRight=4;overflow=hidden;rotatable=0;points=[[0,0.5],[1,0.5]];portConstraint=eastwest;whiteSpace=wrap;html=1;" vertex="1" parent="zAwhETy06kgGIunD6YMz-1">
          <mxGeometry y="88" width="260" height="172" as="geometry" />
        </mxCell>
        <mxCell id="zAwhETy06kgGIunD6YMz-5" value="Game" style="swimlane;fontStyle=1;align=center;verticalAlign=top;childLayout=stackLayout;horizontal=1;startSize=26;horizontalStack=0;resizeParent=1;resizeParentMax=0;resizeLast=0;collapsible=1;marginBottom=0;whiteSpace=wrap;html=1;" vertex="1" parent="1">
          <mxGeometry x="290" y="60" width="400" height="310" as="geometry" />
        </mxCell>
        <mxCell id="zAwhETy06kgGIunD6YMz-6" value="- window: SDL_ Window*&lt;br&gt;&lt;div&gt;- ren: SDL_Renderer&lt;/div&gt;&lt;div&gt;- isRunning: bool&lt;/div&gt;&lt;div&gt;- background: BaseObject&lt;/div&gt;&lt;div&gt;- bird: Bird*&lt;/div&gt;&lt;div&gt;- Music: Mix_Music*&lt;/div&gt;&lt;div&gt;- wingSound: Mix_Chunk*&lt;/div&gt;&lt;div&gt;- dieSound: Mix_Chunk*&lt;/div&gt;&lt;div&gt;- hitSound: Mix_Chunk*&lt;/div&gt;&lt;div&gt;- pointSound: Mix_Chunk*&lt;/div&gt;&lt;div&gt;&lt;br&gt;&lt;/div&gt;" style="text;strokeColor=none;fillColor=none;align=left;verticalAlign=top;spacingLeft=4;spacingRight=4;overflow=hidden;rotatable=0;points=[[0,0.5],[1,0.5]];portConstraint=eastwest;whiteSpace=wrap;html=1;" vertex="1" parent="zAwhETy06kgGIunD6YMz-5">
          <mxGeometry y="26" width="400" height="164" as="geometry" />
        </mxCell>
        <mxCell id="zAwhETy06kgGIunD6YMz-7" value="" style="line;strokeWidth=1;fillColor=none;align=left;verticalAlign=middle;spacingTop=-1;spacingLeft=3;spacingRight=3;rotatable=0;labelPosition=right;points=[];portConstraint=eastwest;strokeColor=inherit;" vertex="1" parent="zAwhETy06kgGIunD6YMz-5">
          <mxGeometry y="190" width="400" height="8" as="geometry" />
        </mxCell>
        <mxCell id="zAwhETy06kgGIunD6YMz-8" value="+ Init(const char* title, int xpos, int ypos, int weidth, int hight): void&lt;div&gt;+ Update(): void&lt;/div&gt;&lt;div&gt;+ Render(): void&lt;/div&gt;&lt;div&gt;+ Close(): void&lt;/div&gt;&lt;div&gt;+ handleEvent(): void&lt;/div&gt;&lt;div&gt;+ Running(): bool&lt;/div&gt;" style="text;strokeColor=none;fillColor=none;align=left;verticalAlign=top;spacingLeft=4;spacingRight=4;overflow=hidden;rotatable=0;points=[[0,0.5],[1,0.5]];portConstraint=eastwest;whiteSpace=wrap;html=1;" vertex="1" parent="zAwhETy06kgGIunD6YMz-5">
          <mxGeometry y="198" width="400" height="112" as="geometry" />
        </mxCell>
        <mxCell id="zAwhETy06kgGIunD6YMz-26" style="edgeStyle=orthogonalEdgeStyle;rounded=0;orthogonalLoop=1;jettySize=auto;html=1;exitX=0.5;exitY=0;exitDx=0;exitDy=0;" edge="1" parent="1" source="zAwhETy06kgGIunD6YMz-9" target="zAwhETy06kgGIunD6YMz-1">
          <mxGeometry relative="1" as="geometry">
            <Array as="points">
              <mxPoint x="480" y="850" />
            </Array>
          </mxGeometry>
        </mxCell>
        <mxCell id="zAwhETy06kgGIunD6YMz-9" value="Bird" style="swimlane;fontStyle=1;align=center;verticalAlign=top;childLayout=stackLayout;horizontal=1;startSize=26;horizontalStack=0;resizeParent=1;resizeParentMax=0;resizeLast=0;collapsible=1;marginBottom=0;whiteSpace=wrap;html=1;" vertex="1" parent="1">
          <mxGeometry x="320" y="850" width="340" height="280" as="geometry" />
        </mxCell>
        <mxCell id="zAwhETy06kgGIunD6YMz-10" value="- width: int&lt;div&gt;- height: int&lt;/div&gt;&lt;div&gt;- bird_pos: float&lt;/div&gt;&lt;div&gt;- jumpHeight: double&lt;/div&gt;&lt;div&gt;- speed: float&lt;/div&gt;&lt;div&gt;- Jumpping: bool&lt;/div&gt;&lt;div&gt;- playing: bool&lt;/div&gt;&lt;div&gt;- birdDie: bool&lt;/div&gt;" style="text;strokeColor=none;fillColor=none;align=left;verticalAlign=top;spacingLeft=4;spacingRight=4;overflow=hidden;rotatable=0;points=[[0,0.5],[1,0.5]];portConstraint=eastwest;whiteSpace=wrap;html=1;" vertex="1" parent="zAwhETy06kgGIunD6YMz-9">
          <mxGeometry y="26" width="340" height="134" as="geometry" />
        </mxCell>
        <mxCell id="zAwhETy06kgGIunD6YMz-11" value="" style="line;strokeWidth=1;fillColor=none;align=left;verticalAlign=middle;spacingTop=-1;spacingLeft=3;spacingRight=3;rotatable=0;labelPosition=right;points=[];portConstraint=eastwest;strokeColor=inherit;" vertex="1" parent="zAwhETy06kgGIunD6YMz-9">
          <mxGeometry y="160" width="340" height="8" as="geometry" />
        </mxCell>
        <mxCell id="zAwhETy06kgGIunD6YMz-12" value="+ Update(): void&lt;div&gt;+ HandleInput(SDL_Event e, Mix_Chunk* wing): void&lt;/div&gt;&lt;div&gt;+&amp;nbsp;Draw(SDL_Renderer* ren) override: void&lt;/div&gt;&lt;div&gt;+&amp;nbsp;PlayerIsPlaying(): bool&lt;/div&gt;&lt;div&gt;+&amp;nbsp;checkCollision(SDL_Rect Object): bool&lt;/div&gt;&lt;div&gt;+&amp;nbsp;gameOver(): void&lt;/div&gt;&lt;div&gt;+&amp;nbsp;checkBirdDie()&quot; bool&lt;/div&gt;&lt;div&gt;&amp;nbsp;&lt;/div&gt;" style="text;strokeColor=none;fillColor=none;align=left;verticalAlign=top;spacingLeft=4;spacingRight=4;overflow=hidden;rotatable=0;points=[[0,0.5],[1,0.5]];portConstraint=eastwest;whiteSpace=wrap;html=1;" vertex="1" parent="zAwhETy06kgGIunD6YMz-9">
          <mxGeometry y="168" width="340" height="112" as="geometry" />
        </mxCell>
        <mxCell id="zAwhETy06kgGIunD6YMz-24" style="edgeStyle=orthogonalEdgeStyle;rounded=0;orthogonalLoop=1;jettySize=auto;html=1;exitX=0.5;exitY=0;exitDx=0;exitDy=0;" edge="1" parent="1" source="zAwhETy06kgGIunD6YMz-13" target="zAwhETy06kgGIunD6YMz-1">
          <mxGeometry relative="1" as="geometry" />
        </mxCell>
        <mxCell id="zAwhETy06kgGIunD6YMz-13" value="Pipe" style="swimlane;fontStyle=1;align=center;verticalAlign=top;childLayout=stackLayout;horizontal=1;startSize=26;horizontalStack=0;resizeParent=1;resizeParentMax=0;resizeLast=0;collapsible=1;marginBottom=0;whiteSpace=wrap;html=1;" vertex="1" parent="1">
          <mxGeometry x="750" y="850" width="320" height="270" as="geometry" />
        </mxCell>
        <mxCell id="zAwhETy06kgGIunD6YMz-14" value="+ field: type" style="text;strokeColor=none;fillColor=none;align=left;verticalAlign=top;spacingLeft=4;spacingRight=4;overflow=hidden;rotatable=0;points=[[0,0.5],[1,0.5]];portConstraint=eastwest;whiteSpace=wrap;html=1;" vertex="1" parent="zAwhETy06kgGIunD6YMz-13">
          <mxGeometry y="26" width="320" height="54" as="geometry" />
        </mxCell>
        <mxCell id="zAwhETy06kgGIunD6YMz-15" value="" style="line;strokeWidth=1;fillColor=none;align=left;verticalAlign=middle;spacingTop=-1;spacingLeft=3;spacingRight=3;rotatable=0;labelPosition=right;points=[];portConstraint=eastwest;strokeColor=inherit;" vertex="1" parent="zAwhETy06kgGIunD6YMz-13">
          <mxGeometry y="80" width="320" height="8" as="geometry" />
        </mxCell>
        <mxCell id="zAwhETy06kgGIunD6YMz-16" value="+&amp;nbsp;Draw(SDL_Renderer* ren) override: void&lt;div&gt;+&amp;nbsp;initPipe(int xPos): void&lt;/div&gt;&lt;div&gt;+&amp;nbsp;randomHeight(): int&lt;/div&gt;&lt;div&gt;+&amp;nbsp;updateTopPipe(int index, bool isPlaying, bool birdDie): void&lt;/div&gt;&lt;div&gt;+&amp;nbsp;updateBottomPipe(int index, bool isPlaying, bool birdDie): void&lt;/div&gt;&lt;div&gt;&lt;br&gt;&lt;/div&gt;&lt;div&gt;&lt;br&gt;&lt;/div&gt;" style="text;strokeColor=none;fillColor=none;align=left;verticalAlign=top;spacingLeft=4;spacingRight=4;overflow=hidden;rotatable=0;points=[[0,0.5],[1,0.5]];portConstraint=eastwest;whiteSpace=wrap;html=1;" vertex="1" parent="zAwhETy06kgGIunD6YMz-13">
          <mxGeometry y="88" width="320" height="182" as="geometry" />
        </mxCell>
        <mxCell id="zAwhETy06kgGIunD6YMz-25" style="edgeStyle=orthogonalEdgeStyle;rounded=0;orthogonalLoop=1;jettySize=auto;html=1;exitX=0.5;exitY=0;exitDx=0;exitDy=0;" edge="1" parent="1" source="zAwhETy06kgGIunD6YMz-17" target="zAwhETy06kgGIunD6YMz-1">
          <mxGeometry relative="1" as="geometry">
            <Array as="points">
              <mxPoint x="105" y="780" />
              <mxPoint x="480" y="780" />
            </Array>
          </mxGeometry>
        </mxCell>
        <mxCell id="zAwhETy06kgGIunD6YMz-17" value="Background" style="swimlane;fontStyle=1;align=center;verticalAlign=top;childLayout=stackLayout;horizontal=1;startSize=26;horizontalStack=0;resizeParent=1;resizeParentMax=0;resizeLast=0;collapsible=1;marginBottom=0;whiteSpace=wrap;html=1;" vertex="1" parent="1">
          <mxGeometry x="-10" y="860" width="230" height="100" as="geometry" />
        </mxCell>
        <mxCell id="zAwhETy06kgGIunD6YMz-18" value="+ field: type" style="text;strokeColor=none;fillColor=none;align=left;verticalAlign=top;spacingLeft=4;spacingRight=4;overflow=hidden;rotatable=0;points=[[0,0.5],[1,0.5]];portConstraint=eastwest;whiteSpace=wrap;html=1;" vertex="1" parent="zAwhETy06kgGIunD6YMz-17">
          <mxGeometry y="26" width="230" height="26" as="geometry" />
        </mxCell>
        <mxCell id="zAwhETy06kgGIunD6YMz-19" value="" style="line;strokeWidth=1;fillColor=none;align=left;verticalAlign=middle;spacingTop=-1;spacingLeft=3;spacingRight=3;rotatable=0;labelPosition=right;points=[];portConstraint=eastwest;strokeColor=inherit;" vertex="1" parent="zAwhETy06kgGIunD6YMz-17">
          <mxGeometry y="52" width="230" height="8" as="geometry" />
        </mxCell>
        <mxCell id="zAwhETy06kgGIunD6YMz-20" value="+ Draw(SDL_Renderer* ren) override: void" style="text;strokeColor=none;fillColor=none;align=left;verticalAlign=top;spacingLeft=4;spacingRight=4;overflow=hidden;rotatable=0;points=[[0,0.5],[1,0.5]];portConstraint=eastwest;whiteSpace=wrap;html=1;" vertex="1" parent="zAwhETy06kgGIunD6YMz-17">
          <mxGeometry y="60" width="230" height="40" as="geometry" />
        </mxCell>
      </root>
    </mxGraphModel>
  </diagram>
</mxfile>
